{
	"asset":{
		"generator":"Khronos glTF Blender I/O v3.6.27",
		"version":"2.0"
	},
	"extensionsUsed":[
		"KHR_materials_specular",
		"KHR_materials_ior"
	],
	"scene":0,
	"scenes":[
		{
			"name":"Scene",
			"nodes":[
				0
			]
		}
	],
	"nodes":[
		{
			"mesh":0,
			"name":"Personaje",
			"rotation":[
				0.7071068286895752,
				0,
				0,
				0.7071068286895752
			]
		}
	],
	"materials":[
		{
			"doubleSided":true,
			"extensions":{
				"KHR_materials_specular":{
					"specularColorFactor":[
						0,
						0,
						0
					]
				},
				"KHR_materials_ior":{
					"ior":1.4500000476837158
				}
			},
			"name":"palette",
			"pbrMetallicRoughness":{
				"baseColorTexture":{
					"index":0
				},
				"metallicFactor":0
			}
		}
	],
	"meshes":[
		{
			"name":"Personaje",
			"primitives":[
				{
					"attributes":{
						"POSITION":0,
						"NORMAL":1,
						"TEXCOORD_0":2
					},
					"indices":3,
					"material":0
				}
			]
		}
	],
	"textures":[
		{
			"sampler":0,
			"source":0
		}
	],
	"images":[
		{
			"mimeType":"image/png",
			"name":"Personaje",
			"uri":"Personaje.png"
		}
	],
	"accessors":[
		{
			"bufferView":0,
			"componentType":5126,
			"count":2710,
			"max":[
				6.400000095367432,
				0,
				-2
			],
			"min":[
				0,
				-0.10000000149011612,
				-9.699999809265137
			],
			"type":"VEC3"
		},
		{
			"bufferView":1,
			"componentType":5126,
			"count":2710,
			"type":"VEC3"
		},
		{
			"bufferView":2,
			"componentType":5126,
			"count":2710,
			"type":"VEC2"
		},
		{
			"bufferView":3,
			"componentType":5123,
			"count":5496,
			"type":"SCALAR"
		}
	],
	"bufferViews":[
		{
			"buffer":0,
			"byteLength":32520,
			"byteOffset":0,
			"target":34962
		},
		{
			"buffer":0,
			"byteLength":32520,
			"byteOffset":32520,
			"target":34962
		},
		{
			"buffer":0,
			"byteLength":21680,
			"byteOffset":65040,
			"target":34962
		},
		{
			"buffer":0,
			"byteLength":10992,
			"byteOffset":86720,
			"target":34963
		}
	],
	"samplers":[
		{
			"magFilter":9729,
			"minFilter":9987
		}
	],
	"buffers":[
		{
			"byteLength":97712,
			"uri":"PerfonsajeThreeJS.bin"
		}
	]
}
