{
	"asset":{
		"generator":"Khronos glTF Blender I/O v3.5.30",
		"version":"2.0"
	},
	"extensionsUsed":[
		"KHR_materials_specular",
		"KHR_materials_ior"
	],
	"scene":0,
	"scenes":[
		{
			"name":"Scene",
			"nodes":[
				0,
				1
			]
		}
	],
	"nodes":[
		{
			"mesh":0,
			"name":"gem_red"
		},
		{
			"mesh":1,
			"name":"ring"
		}
	],
	"materials":[
		{
			"doubleSided":true,
			"extensions":{
				"KHR_materials_specular":{
					"specularColorFactor":[
						2.371357614441398,
						2.371357614441398,
						2.371357614441398
					]
				},
				"KHR_materials_ior":{
					"ior":1.4500000476837158
				}
			},
			"name":"Red Stone",
			"pbrMetallicRoughness":{
				"baseColorFactor":[
					0.8000000715255737,
					0.0025426261126995087,
					0,
					1
				],
				"roughnessFactor":0
			}
		},
		{
			"doubleSided":true,
			"name":"Material.001",
			"normalTexture":{
				"index":0
			},
			"pbrMetallicRoughness":{
				"baseColorTexture":{
					"index":1
				},
				"metallicRoughnessTexture":{
					"index":2
				}
			}
		}
	],
	"meshes":[
		{
			"name":"Icosphere",
			"primitives":[
				{
					"attributes":{
						"POSITION":0,
						"TEXCOORD_0":1,
						"NORMAL":2
					},
					"indices":3,
					"material":0
				}
			]
		},
		{
			"name":"Torus.001",
			"primitives":[
				{
					"attributes":{
						"POSITION":4,
						"TEXCOORD_0":5,
						"NORMAL":6
					},
					"indices":7,
					"material":1
				}
			]
		}
	],
	"textures":[
		{
			"sampler":0,
			"source":0
		},
		{
			"sampler":0,
			"source":1
		},
		{
			"sampler":0,
			"source":2
		}
	],
	"images":[
		{
			"mimeType":"image/png",
			"name":"DefaultMaterial_Normal",
			"uri":"DefaultMaterial_Normal.png"
		},
		{
			"mimeType":"image/png",
			"name":"DefaultMaterial_BaseColor",
			"uri":"DefaultMaterial_BaseColor.png"
		},
		{
			"mimeType":"image/png",
			"name":"DefaultMaterial_Metallic.png-DefaultMaterial_Roughness.png",
			"uri":"DefaultMaterial_Metallic_png-DefaultMaterial_Roughness_png.png"
		}
	],
	"accessors":[
		{
			"bufferView":0,
			"componentType":5126,
			"count":240,
			"max":[
				3.4275739192962646,
				26.701942443847656,
				3.603959083557129
			],
			"min":[
				-3.4275739192962646,
				19.4940242767334,
				-3.603959083557129
			],
			"type":"VEC3"
		},
		{
			"bufferView":1,
			"componentType":5126,
			"count":240,
			"type":"VEC2"
		},
		{
			"bufferView":2,
			"componentType":5126,
			"count":240,
			"type":"VEC3"
		},
		{
			"bufferView":3,
			"componentType":5123,
			"count":240,
			"type":"SCALAR"
		},
		{
			"bufferView":4,
			"componentType":5126,
			"count":495,
			"max":[
				20.49588966369629,
				20.45778465270996,
				3.511887311935425
			],
			"min":[
				-20.49588966369629,
				-20.534000396728516,
				-3.5881009101867676
			],
			"type":"VEC3"
		},
		{
			"bufferView":5,
			"componentType":5126,
			"count":495,
			"type":"VEC2"
		},
		{
			"bufferView":6,
			"componentType":5126,
			"count":495,
			"type":"VEC3"
		},
		{
			"bufferView":7,
			"componentType":5123,
			"count":2688,
			"type":"SCALAR"
		}
	],
	"bufferViews":[
		{
			"buffer":0,
			"byteLength":2880,
			"byteOffset":0,
			"target":34962
		},
		{
			"buffer":0,
			"byteLength":1920,
			"byteOffset":2880,
			"target":34962
		},
		{
			"buffer":0,
			"byteLength":2880,
			"byteOffset":4800,
			"target":34962
		},
		{
			"buffer":0,
			"byteLength":480,
			"byteOffset":7680,
			"target":34963
		},
		{
			"buffer":0,
			"byteLength":5940,
			"byteOffset":8160,
			"target":34962
		},
		{
			"buffer":0,
			"byteLength":3960,
			"byteOffset":14100,
			"target":34962
		},
		{
			"buffer":0,
			"byteLength":5940,
			"byteOffset":18060,
			"target":34962
		},
		{
			"buffer":0,
			"byteLength":5376,
			"byteOffset":24000,
			"target":34963
		}
	],
	"samplers":[
		{
			"magFilter":9729,
			"minFilter":9987
		}
	],
	"buffers":[
		{
			"byteLength":29376,
			"uri":"ring.bin"
		}
	]
}
